<svg width="76" height="77" viewBox="0 0 76 77" fill="none" xmlns="http://www.w3.org/2000/svg">
<rect x="0.0610352" y="0.854614" width="75.8974" height="75.8974" rx="37.9487" fill="white"/>
<path opacity="0.4" d="M35.3743 18.6694C36.829 17.4255 39.2113 17.4255 40.6871 18.6694L44.0181 21.5366C44.6506 22.0847 45.8312 22.5275 46.6745 22.5275H50.2586C52.4933 22.5275 54.3275 24.3617 54.3275 26.5964V30.1805C54.3275 31.0027 54.7703 32.2044 55.3184 32.8369L58.1856 36.1679C59.4295 37.6226 59.4295 40.005 58.1856 41.4808L55.3184 44.8118C54.7703 45.4443 54.3275 46.6249 54.3275 47.4682V51.0523C54.3275 53.287 52.4933 55.1212 50.2586 55.1212H46.6745C45.8523 55.1212 44.6506 55.5639 44.0181 56.1121L40.6871 58.9793C39.2324 60.2232 36.85 60.2232 35.3743 58.9793L32.0432 56.1121C31.4107 55.5639 30.2301 55.1212 29.3868 55.1212H25.7395C23.5047 55.1212 21.6705 53.287 21.6705 51.0523V47.4471C21.6705 46.6249 21.2278 45.4443 20.7007 44.8118L17.8546 41.4597C16.6318 40.005 16.6318 37.6437 17.8546 36.189L20.7007 32.8369C21.2278 32.2044 21.6705 31.0238 21.6705 30.2015V26.5753C21.6705 24.3406 23.5047 22.5064 25.7395 22.5064H29.3868C30.209 22.5064 31.4107 22.0637 32.0432 21.5155L35.3743 18.6694Z" fill="#F3BB2B"/>
<path d="M35.4587 45.4865C35.037 45.4865 34.6365 45.3179 34.3413 45.0227L29.2393 39.9207C28.6279 39.3093 28.6279 38.2973 29.2393 37.6859C29.8507 37.0745 30.8627 37.0745 31.4741 37.6859L35.4587 41.6706L44.5242 32.605C45.1356 31.9936 46.1476 31.9936 46.759 32.605C47.3704 33.2164 47.3704 34.2284 46.759 34.8398L36.5761 45.0227C36.2809 45.3179 35.8803 45.4865 35.4587 45.4865Z" fill="#F3BB2B"/>
</svg>
