<svg width="1104" height="788" viewBox="0 0 1104 788" fill="none" xmlns="http://www.w3.org/2000/svg">
<g opacity="0.66">
<path d="M946.228 728.809L910.434 697.472L958.181 682.741L946.228 728.809Z" fill="#FFC301"/>
</g>
<g opacity="0.66">
<path d="M1049.73 637.191L1056.32 684.292L1010.58 664.198L1049.73 637.191Z" fill="#FFC301"/>
</g>
<g opacity="0.66">
<path d="M1019.88 746.512L948.935 755.428L980.077 687.135L1019.88 746.512Z" fill="#FFC301"/>
</g>
<g opacity="0.66">
<path d="M1053.93 754.395L992.354 688.234L1073.05 702.577L1053.93 754.395Z" fill="#FFC301"/>
</g>
<g opacity="0.66">
<path d="M88.1296 670.207L22.356 654.377L72.3 604.498L88.1296 670.207Z" fill="#FFC301"/>
</g>
<g opacity="0.66">
<path d="M19.8997 622.588L8.78662 576.327L56.2754 591.898L19.8997 622.588Z" fill="#FFC301"/>
</g>
<g opacity="0.45">
<path d="M922.192 290.425H118.759L195.129 126.831L922.192 126.12V290.425Z" fill="#FFC301"/>
</g>
<g opacity="0.45">
<path d="M908.559 290.425H118.759L181.302 157.457H908.559V290.425Z" fill="#FFC301"/>
</g>
<g opacity="0.42">
<path d="M922.188 614.448H142.532L226.655 419.388H922.188V614.448Z" fill="#4B4E5D"/>
</g>
<path d="M890.269 360.14H69.7139L158.23 175.031H890.269V360.14Z" fill="#FFC301"/>
<path d="M890.273 567.54H61.4478L150.804 372.545H890.273V567.54Z" fill="#4B4E5D"/>
<path d="M376.293 240.998L346.636 242.355C347.412 225.298 341.209 216.575 327.77 216.059C311.94 215.412 302.766 228.722 300.504 256.117C299.147 272.141 300.504 282.995 304.51 288.681C308.516 294.237 314.525 296.951 322.343 296.693C334.877 296.24 342.954 288.164 346.766 272.593L374.225 273.885C371.576 288.358 365.503 299.6 355.876 307.612C346.055 315.817 334.231 320.34 320.146 321.115C302.443 322.085 288.164 316.851 277.568 305.286C266.842 293.591 262.384 276.986 264.322 255.729C266.131 236.023 273.239 220.258 285.45 208.435C297.338 196.934 312.328 191.83 330.161 192.928C359.688 194.672 374.677 210.631 376.293 240.998Z" fill="#FFA501"/>
<path fill-rule="evenodd" clip-rule="evenodd" d="M429.338 315.107C414.607 315.947 403.3 310.584 395.676 298.954C387.858 287.195 384.499 272.722 385.532 255.794C386.566 238.672 391.67 224.652 400.781 213.797C409.632 203.137 421.391 198.355 435.864 199.26C450.143 200.1 460.352 206.302 466.877 217.739C473.338 229.11 476.246 241.903 475.729 256.311C475.083 272.012 471.012 285.386 463.324 296.628C455.441 308.129 444.199 314.331 429.338 315.107ZM434.701 220.194C421.714 219.677 414.478 231.63 413.121 256.182C411.764 281.122 417.838 293.527 431.083 293.075C443.617 292.687 450.337 280.346 451.371 256.44C452.404 232.664 446.977 220.711 434.701 220.194Z" fill="#FFA501"/>
<path d="M528.842 308.064L509.329 224.005L506.745 309.227L488.396 310.196L492.078 204.17L524.642 206.108L538.21 266.584L554.686 207.853L583.244 209.468L582.146 305.286L563.473 306.255L564.765 226.138L542.604 307.353L528.842 308.064Z" fill="#FFA501"/>
<path d="M614.771 211.342L614.448 303.541L597.326 304.446L598.037 210.373L614.771 211.342Z" fill="#FFA501"/>
<path d="M677.638 214.96L678.671 300.117L666.266 300.828L640.551 241.386C640.594 242.894 640.637 243.884 640.68 244.358C640.81 245.866 640.874 247.158 640.874 248.235L641.068 302.12L628.598 302.831V212.117L645.397 213.087L667.365 264.84C667.192 262.298 667.085 260.382 667.041 259.089L666.654 214.314L677.638 214.96Z" fill="#FFA501"/>
<path d="M733.075 254.502L734.238 297.21L728.553 297.533C728.079 294.474 727.411 291.373 726.55 288.229C722.867 295.53 717.956 299.342 711.818 299.665C704.453 300.052 698.573 296.434 694.18 288.746C689.786 280.928 687.525 270.784 687.331 258.249C687.137 244.94 689.269 234.343 693.598 226.526C697.927 218.837 703.742 215.283 711.108 215.671C717.181 216.059 722.027 218.772 725.774 223.876C729.457 228.981 731.848 235.571 732.817 243.712L721.122 245.844C719.895 236.152 716.729 231.177 711.431 230.984C707.899 230.854 705.271 233.094 703.548 237.703C701.825 242.312 701.028 249.01 701.158 257.797C701.33 266.326 702.45 272.808 704.517 277.245C706.628 281.725 709.492 283.9 713.111 283.771C715.437 283.684 717.461 282.5 719.184 280.217C720.95 277.934 721.768 274.359 721.639 269.492L711.366 269.621L711.043 254.373L733.075 254.502Z" fill="#FFA501"/>
<path d="M370.607 241.386L340.951 242.743C341.726 225.686 335.523 216.963 322.084 216.382C306.255 215.8 297.08 229.045 294.754 256.505C293.462 272.528 294.819 283.383 298.825 289.004C302.83 294.625 308.839 297.274 316.657 297.016C329.192 296.628 337.268 288.552 341.08 272.916L368.539 274.273C365.826 288.681 359.752 299.923 350.19 307.935C340.369 316.14 328.481 320.663 314.46 321.439C296.757 322.408 282.478 317.239 271.882 305.674C261.157 293.914 256.698 277.309 258.637 256.053C260.446 236.411 267.553 220.646 279.764 208.822C291.653 197.321 306.643 192.217 324.475 193.251C354.002 195.06 368.992 210.954 370.607 241.386Z" fill="white"/>
<path fill-rule="evenodd" clip-rule="evenodd" d="M423.585 315.495C408.919 316.27 397.612 310.907 389.923 299.277C382.17 287.518 378.81 273.11 379.844 256.117C380.878 239.06 385.982 225.04 395.028 214.12C403.879 203.524 415.703 198.743 430.176 199.583C444.455 200.423 454.663 206.626 461.189 218.126C467.65 229.498 470.557 242.291 469.976 256.699C469.394 272.399 465.324 285.774 457.635 297.016C449.753 308.452 438.511 314.655 423.585 315.495ZM429.013 220.582C416.026 220.065 408.725 232.018 407.433 256.57C406.076 281.509 412.149 293.85 425.395 293.462C437.929 293.01 444.584 280.734 445.682 256.763C446.716 233.051 441.224 221.034 429.013 220.582Z" fill="white"/>
<path d="M523.153 308.452L503.64 224.393L501.056 309.615L482.707 310.584L486.389 204.558L518.953 206.432L532.457 266.972L548.997 208.176L577.555 209.856L576.457 305.609L557.784 306.578L559.076 226.461L536.915 307.741L523.153 308.452Z" fill="white"/>
<path d="M609.084 211.665L608.697 303.929L591.575 304.833L592.35 210.696L609.084 211.665Z" fill="white"/>
<path d="M671.952 215.348L672.986 300.505L660.581 301.151L634.866 241.709C634.909 243.26 634.952 244.272 634.995 244.746C635.124 246.253 635.189 247.524 635.189 248.558L635.382 302.508L622.913 303.154V212.505L639.647 213.474L661.679 265.227C661.464 262.686 661.356 260.748 661.356 259.412L660.904 214.702L671.952 215.348Z" fill="white"/>
<path d="M727.387 254.89L728.55 297.597L722.864 297.856C722.347 294.84 721.679 291.761 720.861 288.616C717.178 295.853 712.268 299.729 706.13 300.052C698.764 300.44 692.885 296.822 688.491 289.069C684.098 281.315 681.836 271.107 681.642 258.637C681.449 245.263 683.516 234.666 687.91 226.849C692.174 219.16 698.053 215.606 705.419 216.059C711.428 216.446 716.338 219.16 720.086 224.264C723.768 229.304 726.094 235.959 727.128 244.1L715.369 246.167C714.206 236.475 710.976 231.565 705.742 231.371C702.21 231.199 699.583 233.417 697.86 238.026C696.094 242.678 695.297 249.398 695.469 258.185C695.641 266.67 696.761 273.153 698.829 277.632C700.896 282.069 703.761 284.223 707.422 284.094C709.748 284.05 711.772 282.866 713.495 280.54C715.261 278.3 716.08 274.747 715.951 269.879L705.613 270.008L705.29 254.76L727.387 254.89Z" fill="white"/>
<path d="M361.433 440.903L344.957 449.432C342.761 439.805 338.109 435.023 331.066 435.217C323.636 435.411 319.953 439.094 319.953 446.395C319.953 449.281 320.642 451.714 322.021 453.696C323.399 455.677 326.543 457.4 331.454 458.865C339.724 461.255 345.797 463.775 349.739 466.295C353.658 468.879 356.975 473.058 359.689 478.829C362.402 484.601 363.759 491.062 363.759 498.213C363.759 509.455 360.852 519.082 355.037 527.029C349.286 534.976 340.822 538.723 329.709 538.336C321.482 537.991 314.526 534.933 308.84 529.161C303.197 523.389 299.493 515.011 297.727 504.028L314.72 498.406C316.658 509.649 322.085 515.399 331.002 515.593C335.352 515.722 338.604 514.538 340.758 512.039C342.911 509.541 343.988 506.526 343.988 502.994C343.988 499.419 342.998 496.619 341.016 494.594C339.078 492.613 335.352 490.739 329.839 488.973C319.63 485.678 312.394 481.285 308.129 475.793C303.908 470.322 301.798 462.332 301.798 451.822C301.798 441.226 304.317 432.202 309.357 424.75C314.461 417.191 321.439 413.25 330.355 412.927C346.314 412.345 356.781 421.649 361.433 440.903Z" fill="#414451"/>
<path fill-rule="evenodd" clip-rule="evenodd" d="M409.245 541.244C397.421 540.791 388.375 534.136 382.043 521.214C375.776 508.421 372.61 493.109 372.61 475.212C372.61 456.991 375.776 441.743 382.173 429.403C388.634 416.933 397.808 410.472 409.955 410.019C422.425 409.567 431.923 415.899 438.384 429.209C444.845 442.583 448.14 458.025 448.14 475.47C448.14 494.336 444.78 510.23 438.061 522.959C431.406 535.622 421.779 541.696 409.245 541.244ZM409.826 434.378C399.036 434.636 393.673 448.334 393.673 475.599C393.673 502.93 399.036 516.692 409.826 516.95C420.422 517.144 425.785 503.446 425.785 475.664C425.785 447.881 420.422 434.119 409.826 434.378Z" fill="#414451"/>
<path fill-rule="evenodd" clip-rule="evenodd" d="M498.278 544.538C485.227 544.086 475.277 537.044 468.299 523.475C461.385 510.036 457.961 494.013 457.961 475.211C457.961 456.087 461.45 440.128 468.428 427.141C475.535 414.025 485.679 407.176 499.053 406.724C512.815 406.207 523.282 412.862 530.389 426.818C537.626 440.903 541.244 457.12 541.244 475.47C541.244 495.305 537.497 511.975 530.066 525.414C522.701 538.724 512.105 545.055 498.278 544.538ZM498.924 432.31C487.036 432.568 481.156 446.976 481.156 475.599C481.156 504.221 487.036 518.694 498.924 519.017C510.619 519.276 516.498 504.803 516.498 475.664C516.498 446.46 510.619 431.987 498.924 432.31Z" fill="#414451"/>
<path d="M640.229 403.687V547.575L617.874 546.8L575.618 451.176C575.661 453.588 575.704 455.16 575.748 455.893C575.963 458.262 576.071 460.265 576.071 461.901V545.249L556.946 544.603V406.659L583.501 405.755L620.458 488.392C620.157 484.257 620.006 481.091 620.006 478.894V404.398L640.229 403.687Z" fill="#414451"/>
<path d="M370.348 440.903L353.872 449.432C351.676 439.74 347.024 435.023 339.981 435.217C332.551 435.346 328.868 439.094 328.868 446.33C328.868 449.259 329.557 451.714 330.936 453.696C332.314 455.677 335.458 457.379 340.369 458.8C348.639 461.255 354.712 463.775 358.654 466.295C362.573 468.879 365.89 473.058 368.604 478.829C371.317 484.601 372.674 491.062 372.674 498.213C372.674 509.455 369.702 519.017 363.952 527.029C358.201 534.976 349.737 538.723 338.624 538.271C330.397 537.97 323.441 534.911 317.755 529.096C312.112 523.368 308.408 514.99 306.642 503.963L323.635 498.342C325.573 509.649 331 515.399 339.917 515.593C344.267 515.722 347.519 514.538 349.673 512.039C351.826 509.541 352.903 506.526 352.903 502.994C352.903 499.376 351.913 496.576 349.931 494.594C347.993 492.613 344.267 490.739 338.754 488.973C328.545 485.678 321.309 481.285 317.044 475.793C312.823 470.322 310.713 462.332 310.713 451.822C310.713 441.226 313.232 432.18 318.272 424.686C323.376 417.191 330.354 413.25 339.27 412.927C355.229 412.345 365.696 421.649 370.348 440.903Z" fill="white"/>
<path fill-rule="evenodd" clip-rule="evenodd" d="M418.159 541.244C406.335 540.791 397.29 534.136 390.958 521.214C384.691 508.421 381.525 493.109 381.525 475.212C381.525 456.991 384.691 441.743 391.087 429.403C397.484 416.933 406.723 410.407 418.87 409.955C431.34 409.502 440.837 415.899 447.299 429.144C453.76 442.583 457.055 458.025 457.055 475.47C457.055 494.336 453.695 510.23 446.975 522.959C440.321 535.622 430.694 541.696 418.159 541.244ZM418.741 434.313C407.951 434.571 402.588 448.333 402.588 475.599C402.588 502.865 407.951 516.627 418.741 516.885C429.337 517.144 434.699 503.382 434.699 475.664C434.699 447.881 429.337 434.119 418.741 434.313Z" fill="white"/>
<path fill-rule="evenodd" clip-rule="evenodd" d="M507.193 544.538C494.142 544.022 484.192 536.979 477.214 523.475C470.3 510.036 466.876 493.948 466.876 475.211C466.876 456.087 470.365 440.063 477.343 427.076C484.45 414.025 494.594 407.176 507.968 406.724C521.73 406.207 532.197 412.862 539.305 426.818C546.541 440.838 550.159 457.12 550.159 475.47C550.159 495.305 546.412 511.975 538.981 525.414C531.616 538.659 521.02 545.055 507.193 544.538ZM507.839 432.245C495.951 432.568 490.071 446.976 490.071 475.599C490.071 504.221 495.951 518.694 507.839 518.953C519.534 519.276 525.413 504.803 525.413 475.664C525.413 446.46 519.534 431.987 507.839 432.245Z" fill="white"/>
<path d="M649.141 403.687V547.575L626.785 546.735L584.53 451.176C584.573 453.588 584.616 455.16 584.659 455.893C584.874 458.262 584.982 460.265 584.982 461.901V545.249L565.857 544.603V406.659L592.412 405.69L629.37 488.392C629.068 484.214 628.917 481.048 628.917 478.894V404.398L649.141 403.687Z" fill="white"/>
<path d="M908.3 588.345H111.005L197.002 393.35H908.3V588.345Z" stroke="#414451" stroke-width="4.58724" stroke-miterlimit="10"/>
<path d="M908.296 329.644H106.284L192.798 157.457H908.296V329.644Z" stroke="#FFA501" stroke-width="3.05816" stroke-miterlimit="10"/>
<path d="M820.943 139.301C814.805 152.675 810.153 167.213 807.375 182.719C793.355 261.544 885.037 373.192 890.27 374.096C895.762 375.065 1020.07 301.926 1034.16 223.101C1036.94 207.594 1037.65 192.282 1036.48 177.68L820.943 139.301Z" fill="#EAF3F8"/>
<path d="M960.568 605.273C966.448 592.092 970.906 577.684 973.619 562.436C987.898 482.383 896.41 369.379 891.241 368.41C885.684 367.441 761.115 442.002 746.836 522.119C744.122 537.367 743.347 552.357 744.316 566.765L960.568 605.273Z" fill="#EAF3F8"/>
<path d="M1061.62 172.446L799.168 125.733C793.87 124.763 790.316 119.724 791.285 114.426L795.033 93.3627C795.937 88.0646 801.041 84.511 806.34 85.4802L1068.79 132.194C1074.09 133.163 1077.64 138.202 1076.67 143.501L1072.92 164.564C1071.95 169.862 1066.91 173.351 1061.62 172.446Z" fill="#4B4E5D"/>
<path d="M1038.42 188.405L815.386 148.669C812.544 148.152 810.605 145.439 811.122 142.596L812.737 133.486C813.254 130.643 816.033 128.705 818.875 129.221L1041.91 168.892C1044.75 169.409 1046.69 172.188 1046.18 175.03L1044.56 184.141C1044.04 186.983 1041.27 188.922 1038.42 188.405Z" fill="#2E3442"/>
<path d="M718.922 575.358L981.435 622.072C986.733 622.976 990.222 628.08 989.318 633.314L985.506 654.442C984.601 659.74 979.561 663.229 974.263 662.324L711.75 615.546C706.452 614.641 702.899 609.602 703.868 604.304L707.615 583.176C708.584 577.943 713.624 574.389 718.922 575.358Z" fill="#4B4E5D"/>
<path d="M742.121 559.399L965.157 599.07C968 599.587 969.938 602.301 969.421 605.208L967.806 614.318C967.289 617.161 964.575 619.035 961.668 618.583L738.696 578.847C735.789 578.33 733.915 575.617 734.367 572.774L736.047 563.663C736.564 560.821 739.278 558.882 742.121 559.399Z" fill="#2E3442"/>
<path d="M956.43 597.519L750.839 560.95L752.519 551.452C753.488 545.96 757.041 541.308 762.016 538.788L870.885 484.58L953.975 573.29C957.593 577.102 959.144 582.401 958.239 587.505L956.43 597.519Z" fill="#FFBB35"/>
<path d="M873.083 496.985L863.843 495.37L887.943 360.14L896.795 364.017L873.083 496.985Z" fill="#FFBB35"/>
<path d="M1003.4 273.626C985.892 317.045 893.693 368.863 893.693 368.863C893.693 368.863 811.831 279.118 820.618 229.95C822.815 217.609 858.544 264.129 908.682 273.045C946.673 279.829 982.855 272.011 998.168 267.876C1001.59 266.907 1004.76 270.331 1003.4 273.626Z" fill="#FFBB35"/>
<path d="M1043.2 171.154L816.871 130.837C816.29 130.772 815.966 130.255 816.031 129.738C816.16 129.157 816.677 128.834 817.194 128.899L1043.59 169.216C1044.11 169.28 1044.49 169.797 1044.37 170.379C1044.3 170.895 1043.78 171.283 1043.2 171.154Z" fill="#2E2832"/>
<path d="M963.15 619.811L736.819 579.558C736.237 579.429 735.914 578.912 735.979 578.395C736.108 577.878 736.625 577.491 737.142 577.555L963.538 617.872C964.054 618.001 964.442 618.518 964.313 619.035C964.248 619.552 963.731 619.94 963.15 619.811Z" fill="#2E2832"/>
<path d="M480.961 709.877L444.133 696.891L473.789 671.499L480.961 709.877Z" fill="#FFA501"/>
<path d="M636.998 742.764L601.914 759.951L604.498 721.055L636.998 742.764Z" fill="#FFA501"/>
<path d="M123.215 93.8149L89.3589 74.3024L123.215 54.79V93.8149Z" fill="#FFA501"/>
<path d="M935.243 713.172L899.449 681.836L947.261 667.105L935.243 713.172Z" fill="#FFA501"/>
<path d="M1038.81 621.555L1045.34 668.656L999.593 648.562L1038.81 621.555Z" fill="#FFA501"/>
<path d="M71.9108 648.304L6.13721 632.539L56.1459 582.595L71.9108 648.304Z" fill="#FFA501"/>
<path d="M11.1135 604.95L0.000488281 558.689L47.4893 574.26L11.1135 604.95Z" fill="#FFA501"/>
<path d="M1073.9 26.0383L1039.78 30.3672L1051.54 0.000244141L1073.9 26.0383Z" fill="#FFA501"/>
<g opacity="0.66">
<path d="M977.885 362.596L1011.16 319.306L1031.77 371.383L977.885 362.596Z" fill="#FFC301"/>
</g>
<g opacity="0.66">
<path d="M982.278 394.642L1010.71 397.032L993.649 420.809L982.278 394.642Z" fill="#FFC301"/>
</g>
<path d="M1008.96 730.876L937.95 739.857L969.157 671.499L1008.96 730.876Z" fill="#FFA501"/>
<path d="M1050.44 735.592L988.801 669.431L1069.5 683.775L1050.44 735.592Z" fill="#FFA501"/>
<g opacity="0.66">
<path d="M656.124 770.611L621.105 787.862L623.689 748.902L656.124 770.611Z" fill="#FFC301"/>
</g>
<g opacity="0.66">
<path d="M508.358 741.859L471.53 728.873L501.186 703.481L508.358 741.859Z" fill="#FFC301"/>
</g>
<path d="M976.396 375.97L1009.67 332.745L1030.28 384.821L976.396 375.97Z" fill="#FFA501"/>
<path d="M973.811 391.541L1002.3 393.867L985.182 417.708L973.811 391.541Z" fill="#FFA501"/>
<g opacity="0.66">
<path d="M485.029 73.7855L516.882 14.1499L552.676 75.0131L485.029 73.7855Z" fill="#FFC301"/>
</g>
<g opacity="0.66">
<path d="M548.289 19.8357L595.907 20.6756L568.899 62.7372L548.289 19.8357Z" fill="#FFC301"/>
</g>
<path d="M510.294 63.6417L542.147 4.0061L577.941 64.8693L510.294 63.6417Z" fill="#FFA501"/>
<path d="M567.605 15.7651L615.224 16.6697L588.216 58.6666L567.605 15.7651Z" fill="#FFA501"/>
<path d="M251.268 674.6C251.268 681.642 245.582 687.393 238.54 687.393C231.497 687.393 225.812 681.642 225.812 674.6C225.812 667.622 231.497 661.872 238.54 661.872C245.582 661.872 251.268 667.622 251.268 674.6Z" stroke="#FFC301" stroke-width="3.8227" stroke-miterlimit="10"/>
<path d="M595.967 648.174C595.967 655.217 590.281 660.967 583.239 660.967C576.196 660.967 570.51 655.217 570.51 648.174C570.51 641.132 576.196 635.446 583.239 635.446C590.281 635.446 595.967 641.132 595.967 648.174Z" stroke="#FFC301" stroke-width="3.8227" stroke-miterlimit="10"/>
<path d="M1102 215.671C1102 222.713 1096.25 228.399 1089.21 228.399C1082.17 228.399 1076.48 222.713 1076.48 215.671C1076.48 208.628 1082.17 202.942 1089.21 202.942C1096.25 202.942 1102 208.628 1102 215.671Z" stroke="#FFC301" stroke-width="3.8227" stroke-miterlimit="10"/>
<path d="M329.514 49.8797C329.514 56.9222 323.828 62.608 316.786 62.608C309.743 62.608 303.993 56.9222 303.993 49.8797C303.993 42.8371 309.743 37.1514 316.786 37.1514C323.828 37.1514 329.514 42.8371 329.514 49.8797Z" stroke="#FFC301" stroke-width="3.8227" stroke-miterlimit="10"/>
<path d="M103.701 406.078C103.701 413.121 98.015 418.806 90.9724 418.806C83.9299 418.806 78.2441 413.121 78.2441 406.078C78.2441 399.036 83.9299 393.35 90.9724 393.35C98.015 393.35 103.701 399.036 103.701 406.078Z" stroke="#FFC301" stroke-width="3.8227" stroke-miterlimit="10"/>
<path d="M895.891 367.441C910.816 359.171 986.863 312.716 1003.47 273.885C1004.89 270.59 1001.85 267.165 998.363 268.005C990.093 270.073 975.362 273.82 958.111 274.919C944.091 297.016 908.619 345.086 897.248 361.691C894.728 365.309 895.891 367.441 895.891 367.441Z" fill="#FFA529"/>
<path d="M956.368 597.39L958.177 587.375C959.146 582.271 957.596 577.038 953.978 573.161L874.571 488.521L897.249 361.69L895.634 366.084L873.279 488.327L868.756 487.552L880.321 508.098L913.596 565.472C917.214 569.284 918.765 574.518 917.796 579.687L915.987 589.701L750.971 559.593L750.842 560.95L956.368 597.39Z" fill="#FFA529"/>
</svg>
