<svg width="223" height="75" viewBox="0 0 223 75" fill="none" xmlns="http://www.w3.org/2000/svg">
<path d="M155.594 45.383C155.594 49.9666 155.594 54.5504 155.594 59.1341C161.202 54.0605 166.899 49.0923 172.734 44.2808C166.99 44.4043 161.279 44.7971 155.594 45.383Z" fill="#6D0F64"/>
<path d="M155.594 45.383C161.279 44.797 166.99 44.4043 172.734 44.2808C167.003 44.4022 161.297 44.7788 155.594 45.3479C155.594 45.3597 155.594 45.3713 155.594 45.383Z" fill="#6D0F64"/>
<path d="M67.0661 73.7081C67.0661 69.1126 67.0661 64.5173 67.0661 59.9216C61.3629 60.4907 55.6565 60.8675 49.9258 60.9889C55.5277 65.38 61.246 69.6109 67.0661 73.7081Z" fill="#6D0F64"/>
<path d="M84.1953 19.6039C85.2544 18.9541 86.5364 17.9274 87.6725 17.0692C86.7475 17.622 85.445 18.678 84.1953 19.6039Z" fill="#6D0F64"/>
<path d="M134.551 39.3842C134.303 39.2495 134.14 40.3146 134.059 41.3393C135.648 42.5903 138.167 44.6023 140.434 43.9378C141.36 43.6662 142.007 43.237 142.454 42.6983C142.326 42.7456 142.194 42.7897 142.054 42.83C139.119 43.6771 135.771 40.0478 134.551 39.3842Z" fill="#6D0F64"/>
<path d="M128.275 44.9681C126.518 43.3666 124.375 45.204 122.809 46.3352C119.758 48.5381 115.495 47.4014 112.457 45.8777C111.292 45.293 109.934 46.3913 109.004 47.0421C108.539 47.3681 108.076 47.7107 107.613 48.0551C108.528 47.4033 109.764 46.5155 110.837 47.0537C113.876 48.578 118.139 49.7098 121.189 47.5025C122.752 46.3706 124.897 44.5263 126.655 46.1242C127.782 47.149 130.984 46.5176 132.038 45.0714C130.693 45.6037 129.023 45.6502 128.275 44.9681Z" fill="#6D0F64"/>
<path d="M99.0488 14.8566C98.4264 15.1033 97.8758 15.4432 97.5126 15.9068C97.3369 16.1312 97.1138 16.4931 96.8555 16.8547C97.7572 17.0105 98.5563 15.5405 99.0488 14.8566Z" fill="#6D0F64"/>
<path d="M145.002 24.3181C144.773 24.2824 144.642 24.7319 144.574 25.4564C146.486 25.3716 149.117 24.6852 150.65 23.9432C151.407 23.5765 152.114 23.1418 152.752 22.6461C152.593 22.7303 152.433 22.8124 152.27 22.8904C150.378 23.7949 146.823 24.6027 145.002 24.3181Z" fill="#6D0F64"/>
<path d="M78.274 43.4763C75.4433 41.459 79.5334 38.4917 78.274 36.8041C77.4099 35.6463 73.7699 36.3963 72.1362 36.176C69.6336 35.838 67.8683 34.5542 67.0625 32.5096C67.0625 33.6056 67.0625 34.7015 67.0625 35.7976C67.9603 36.5445 69.1239 37.0328 70.516 37.2292C72.1519 37.46 75.7886 36.7291 76.6538 37.8924C77.9152 39.5885 73.8256 42.5345 76.6538 44.5643C78.2239 45.6913 78.5272 46.7425 77.8358 47.6053C80.1414 46.6263 80.5963 45.1312 78.274 43.4763Z" fill="#6D0F64"/>
<path d="M72.4889 19.5886C68.715 21.8181 65.4478 25.2119 65.0039 29.6396C65.5272 29.5925 66.0505 29.543 66.5739 29.4919C66.6381 25.3003 69.2082 21.964 72.4889 19.5886Z" fill="#6D0F64"/>
<path d="M76.8546 51.4574C76.3468 50.5716 76.1903 49.3207 76.6934 48.4695C76.4805 48.5788 76.2473 48.683 75.9927 48.7813C74.4967 49.3578 74.5303 51.3056 75.2344 52.538C76.6141 54.9532 80.0274 55.388 82.5034 55.2008C85.3558 54.985 88.0945 54.1654 90.3496 52.3629C90.4081 52.3161 90.4706 52.2614 90.5359 52.2016C88.596 53.3373 86.3971 53.903 84.1237 54.0846C81.6545 54.282 78.2365 53.8679 76.8546 51.4574Z" fill="#6D0F64"/>
<path d="M94.5667 49.4769C94.044 49.2169 93.2859 49.9442 92.6484 50.5776C92.7539 50.5681 92.854 50.5831 92.9465 50.6294C95.5233 51.9198 99.1869 53.3045 102.146 51.7994C103.352 51.186 104.518 50.3281 105.684 49.4608C105.052 49.8962 104.415 50.298 103.767 50.6287C100.81 52.1364 97.1438 50.7593 94.5667 49.4769Z" fill="#6D0F64"/>
<path d="M133.647 10.3625C133.828 9.74506 134.069 9.16056 134.42 8.67798C134.3 8.71704 134.178 8.7617 134.054 8.81238C132.948 9.26346 132.396 10.2846 132.051 11.4258C132.374 11.7035 132.673 11.8962 132.954 11.9246C133.327 11.962 133.468 10.9729 133.647 10.3625Z" fill="#6D0F64"/>
<path d="M111.283 13.0254C110.641 13.3056 110.091 13.6598 109.709 14.1388C109.37 14.5635 108.855 15.826 108.238 16.7928C109.514 17.1725 110.663 13.8943 111.283 13.0254Z" fill="#6D0F64"/>
<path d="M66.5778 30.0827C66.5696 29.8838 66.5687 29.6872 66.5717 29.4919C66.0484 29.5429 65.525 29.5925 65.0018 29.6396C64.9542 30.1148 64.9374 30.601 64.9577 31.0997C65.0403 33.1335 65.7799 34.7302 67.063 35.7977C67.063 34.7016 67.063 33.6057 67.063 32.5098C66.7798 31.7916 66.6142 30.9806 66.5778 30.0827Z" fill="#6D0F64"/>
<path d="M222.654 22.1575C207.599 16.3886 191.976 14.0166 176.157 13.8836C175.014 24.016 173.871 34.1483 172.73 44.2808C166.895 49.0923 161.198 54.0604 155.59 59.1341C178.381 56.8639 201.099 58.1621 222.654 66.4213C217.445 57.2693 212.063 48.2203 206.498 39.2803C211.697 33.3947 217.057 27.6656 222.654 22.1575Z" fill="#7F1370"/>
<path d="M0 22.1575C5.20884 31.3096 10.5906 40.3587 16.1554 49.2989C10.9575 55.1843 5.59734 60.9134 0 66.4213C21.5548 74.6815 44.2733 75.9784 67.0639 73.7083C61.2438 69.6109 55.5255 65.3801 49.9236 60.989C48.7728 50.8031 47.6249 40.6169 46.4768 30.4309C30.665 30.2961 15.0489 27.9239 0 22.1575Z" fill="#7F1370"/>
<path d="M67.0661 59.9218C67.0661 59.91 67.0661 59.8984 67.0661 59.8866C61.3804 60.4728 55.6701 60.8655 49.9258 60.989C55.6565 60.8676 61.3629 60.4909 67.0661 59.9218Z" fill="#7F1370"/>
<path d="M44.9336 16.7357C45.4477 21.3008 45.9637 25.8658 46.4784 30.4308C47.6266 40.6169 48.7744 50.8032 49.9252 60.9889C55.6695 60.8654 61.3798 60.4725 67.0655 59.8865C96.799 56.8213 125.86 48.4476 155.593 45.3829C155.593 45.3711 155.593 45.3595 155.593 45.3478C161.296 44.7787 167.003 44.4021 172.733 44.2807C173.874 34.1482 175.017 24.0158 176.16 13.8835C176.682 9.25773 177.203 4.63171 177.725 0.00597248C132.779 -0.369788 89.8799 17.1116 44.9336 16.7357ZM155.593 20.4954C154.808 21.3445 153.842 22.0677 152.755 22.6459C152.117 23.1417 151.41 23.5764 150.653 23.943C149.12 24.6852 146.489 25.3715 144.577 25.4563C144.355 27.8391 144.824 33.1991 144.815 34.0851C144.781 37.231 146.073 41.3526 142.456 42.6981C142.009 43.2368 141.363 43.6659 140.436 43.9377C138.17 44.6021 135.65 42.5902 134.061 41.3392C134.01 41.9738 133.991 42.593 134.001 42.902C134.034 43.866 133.147 44.6332 132.039 45.0714C130.986 46.5175 127.783 47.149 126.656 46.1242C124.898 44.5263 122.753 46.3706 121.19 47.5025C118.14 49.7098 113.877 48.578 110.838 47.0537C109.765 46.5155 108.53 47.4033 107.615 48.0551C106.972 48.5335 106.331 49.0147 105.684 49.4608C104.518 50.3281 103.352 51.1861 102.146 51.7994C99.1871 53.3045 95.5236 51.9197 92.9466 50.6294C92.8541 50.5831 92.754 50.5681 92.6485 50.5776C92.3967 50.8279 92.1637 51.0635 91.9715 51.2177C91.5129 51.5856 91.0334 51.9111 90.5376 52.2013C90.4722 52.2612 90.4097 52.3159 90.3513 52.3626C88.0962 54.1651 85.3575 54.9847 82.5051 55.2006C80.0291 55.3879 76.6157 54.9529 75.236 52.5378C74.532 51.3053 74.4985 49.3575 75.9944 48.781C76.2489 48.6829 76.4822 48.5787 76.6951 48.4692C76.8932 48.1341 77.1934 47.8608 77.6146 47.6963C77.6912 47.6665 77.7657 47.6359 77.8386 47.6051C78.5301 46.7423 78.2267 45.6912 76.6566 44.5642C73.8285 42.5343 77.918 39.5883 76.6566 37.8922C75.7914 36.7288 72.1549 37.4599 70.5189 37.229C69.1267 37.0328 67.9632 36.5443 67.0654 35.7974C65.7823 34.7299 65.0425 33.1333 64.96 31.0994C64.9397 30.6009 64.9565 30.1145 65.0041 29.6394C65.4482 25.2116 68.7153 21.8178 72.4891 19.5883C73.3753 18.9467 74.3125 18.374 75.2668 17.8749C76.5533 17.202 78.1296 16.9283 79.5038 17.3479C80.9542 17.7907 81.5016 19.5917 82.2491 20.1434C82.6153 20.4138 83.3318 20.1343 84.1969 19.6037C85.4467 18.6779 86.7491 17.6219 87.6741 17.069C88.545 16.411 89.3301 15.8523 89.8632 15.6387C91.8424 14.8456 94.564 14.7582 96.2632 16.5083C96.4637 16.7148 96.6615 16.8211 96.8547 16.8546C97.1131 16.4928 97.3363 16.1309 97.5119 15.9066C97.875 15.4429 98.4256 15.1032 99.0481 14.8565C99.0771 14.8163 99.1053 14.7779 99.1321 14.7435C100.157 13.4325 102.672 13.1019 104.098 13.093C105.582 13.0839 106.842 15.8389 107.96 16.6521C108.053 16.7199 108.146 16.7654 108.238 16.7927C108.854 15.8258 109.37 14.5633 109.709 14.1387C110.091 13.6596 110.64 13.3054 111.283 13.0253C111.298 13.0034 111.314 12.9813 111.329 12.9626C112.815 11.1001 116.818 11.1181 119.063 10.0926C121.353 9.04661 124.46 9.38359 126.797 8.71873C129.211 8.03203 130.816 10.3621 132.054 11.4255C132.399 10.2844 132.951 9.26319 134.057 8.81211C134.181 8.76143 134.303 8.71678 134.423 8.67772C134.738 8.24526 135.142 7.89442 135.677 7.6784C137.707 6.85828 139.084 7.64801 141.174 7.76463C143.715 7.90645 146.263 5.0387 148.677 4.23776C154.501 2.30576 156.949 9.72603 157.615 14.018C157.65 14.2387 157.673 14.4562 157.689 14.6714C157.861 16.9556 157.034 18.9372 155.593 20.4954Z" fill="#8B1875"/>
<path d="M157.613 14.0183C156.946 9.7263 154.498 2.30602 148.675 4.23802C146.261 5.0391 143.712 7.90673 141.171 7.76491C139.082 7.64829 137.704 6.85855 135.675 7.67867C135.14 7.89469 134.736 8.24552 134.421 8.67798C134.069 9.16056 133.829 9.74507 133.648 10.3625C133.469 10.9729 133.328 11.9621 132.955 11.9244C132.674 11.8962 132.375 11.7035 132.052 11.4256C130.813 10.3622 129.209 8.03217 126.795 8.71887C124.457 9.38359 121.35 9.04675 119.061 10.0927C116.816 11.1182 112.812 11.1003 111.327 12.9627C111.312 12.9814 111.296 13.0036 111.28 13.0254C110.66 13.8942 109.511 17.1725 108.236 16.7928C108.144 16.7655 108.051 16.72 107.958 16.6522C106.84 15.839 105.579 13.0841 104.095 13.0932C102.669 13.1021 100.155 13.4327 99.1298 14.7436C99.1029 14.7779 99.0748 14.8163 99.0458 14.8566C98.5533 15.5405 97.7542 17.0105 96.8524 16.8548C96.6592 16.8215 96.4616 16.7152 96.2609 16.5086C94.5618 14.7585 91.8402 14.8458 89.861 15.6389C89.328 15.8524 88.5429 16.4113 87.6718 17.0693C86.5357 17.9275 85.2537 18.9543 84.1946 19.604C83.3296 20.1347 82.613 20.414 82.2468 20.1437C81.4993 19.5921 80.9519 17.791 79.5015 17.3482C78.1273 16.9286 76.551 17.2023 75.2646 17.8751C74.3102 18.3742 73.373 18.947 72.4868 19.5886C69.2062 21.964 66.6361 25.3003 66.5718 29.4919C66.5689 29.6872 66.5699 29.8838 66.5779 30.0827C66.6143 30.9806 66.78 31.7916 67.063 32.5096C67.8688 34.554 69.6341 35.8378 72.1367 36.1759C73.7704 36.3963 77.4104 35.6465 78.2744 36.8041C79.5339 38.4918 75.4438 41.459 78.2744 43.4763C80.5968 45.1312 80.1419 46.6262 77.8362 47.6053C77.7634 47.6362 77.6888 47.6666 77.6122 47.6964C77.1908 47.861 76.8907 48.1343 76.6927 48.4693C76.1895 49.3205 76.3461 50.5714 76.8538 51.4572C78.2358 53.8679 81.6537 54.2819 84.1229 54.0845C86.3964 53.9029 88.5952 53.3372 90.5352 52.2015C91.0308 51.9113 91.5105 51.5858 91.9691 51.2178C92.1613 51.0636 92.3943 50.8281 92.6461 50.5777C93.2836 49.9444 94.0417 49.2169 94.5644 49.4771C97.1415 50.7595 100.808 52.1365 103.764 50.629C104.413 50.2984 105.05 49.8966 105.681 49.4611C106.328 49.0149 106.97 48.5338 107.612 48.0554C108.075 47.711 108.538 47.3684 109.003 47.0423C109.933 46.3916 111.29 45.2933 112.456 45.8779C115.494 47.4017 119.756 48.5384 122.808 46.3355C124.374 45.2043 126.517 43.3669 128.274 44.9684C129.022 45.6504 130.692 45.604 132.037 45.0718C133.144 44.6336 134.031 43.8664 133.999 42.9024C133.988 42.5934 134.008 41.9742 134.059 41.3396C134.14 40.3149 134.303 39.2498 134.551 39.3845C135.771 40.0479 139.119 43.6773 142.054 42.8303C142.194 42.79 142.326 42.7457 142.454 42.6985C146.071 41.353 144.779 37.2313 144.813 34.0855C144.822 33.1996 144.352 27.8395 144.575 25.4567C144.642 24.7322 144.774 24.2827 145.002 24.3184C146.824 24.603 150.378 23.7952 152.271 22.8906C152.434 22.8127 152.594 22.7306 152.752 22.6463C153.839 22.0681 154.806 21.3449 155.591 20.4958C157.031 18.9375 157.858 16.956 157.686 14.6719C157.67 14.4565 157.647 14.2389 157.613 14.0183ZM119.236 12.2341C119.236 12.2341 119.136 11.6324 120.041 11.4389C120.971 11.2401 122.757 10.8008 122.783 11.4564C122.791 15.9772 122.799 20.4978 122.808 25.0184C122.808 25.0184 122.712 25.862 121.575 26.1928C120.763 26.4294 118.921 26.9137 118.733 25.7175C118.096 21.6662 118.986 16.6595 119.236 12.2341ZM84.8311 20.3613C86.1461 18.6561 88.3609 17.3382 90.4397 17.0531C91.7116 16.8785 93.1066 16.9286 94.3565 17.3983C94.7685 17.5533 95.164 17.7545 95.5348 18.0079C95.7117 18.1288 95.8841 18.2592 96.0484 18.405C97.3898 19.5959 98.1721 21.457 98.1612 23.2346C98.1486 25.2806 97.2516 27.2608 96.0484 28.83C94.7572 30.5144 92.569 31.9127 90.4397 32.1805C88.433 32.433 86.4952 32.1617 84.8311 30.7862C83.419 29.6192 82.6909 27.6844 82.6933 25.9249C82.6959 23.8093 83.5674 21.9997 84.8311 20.3613ZM71.3506 33.8682C69.5331 32.7726 68.4785 30.5043 68.5337 28.3878C68.603 25.729 70.0975 23.2024 71.9793 21.426C73.73 19.7733 77.1045 18.2954 79.3737 19.8262C79.5029 19.9169 79.6217 20.0185 79.7356 20.1244C80.0615 20.4275 80.3242 20.7845 80.5202 21.1601C80.6556 21.4195 80.7618 21.6867 80.8325 21.9496C80.9645 22.4399 80.9834 22.9471 80.7068 23.4092C80.0013 24.3525 77.4431 24.8299 77.3366 23.4413C77.2253 21.9925 75.4589 22.4468 74.7208 23.0381C72.6574 24.6839 71.6608 28.24 73.262 30.4905C74.3156 31.6132 76.181 31.2712 77.2107 30.2822C78.0446 29.4813 78.5211 29.1324 79.1725 29.0201C80.4869 28.7937 81.801 29.4337 81.1344 30.9278C79.7874 34.086 74.1932 35.5817 71.3506 33.8682ZM85.6485 41.7201C87.6439 42.6535 90.5027 42.5282 92.0369 44.1866C93.5055 45.7741 92.4902 48.388 90.9806 49.6361C89.5885 50.8232 87.7075 51.4253 85.9252 51.6594C83.8522 51.9315 80.818 51.4996 80.1405 49.1089C80.065 48.78 80.0148 48.4474 80.0902 48.1158C80.5314 47.0184 81.644 46.2222 82.706 45.8945C83.3578 45.6933 83.5108 46.1477 83.4856 46.2519C83.6277 47.4977 84.6076 48.5055 85.875 48.6063C86.2021 48.6324 86.5792 48.5897 86.9817 48.4423C87.9375 48.0822 88.3662 47.4269 88.3399 46.952C88.3158 46.5172 87.9375 46.0804 87.3338 45.7617C85.1725 44.7334 81.6605 44.5295 80.5934 42.2175C79.1055 38.9941 84.1466 36.7315 86.7051 36.4026C88.7243 36.1432 92.539 36.671 92.8923 38.7913C93.0839 39.9414 91.3797 41.1487 90.176 41.333C89.8239 41.2943 89.5975 41.1133 89.4466 40.8393C88.6234 39.1684 84.8456 38.2562 84.8439 40.9112C84.8689 41.2073 85.1959 41.4945 85.6485 41.7201ZM107.706 45.3573C106.414 47.0558 104.232 48.4782 102.097 48.7835C100.105 49.068 98.1642 48.8467 96.4881 47.4999C95.069 46.3596 94.3474 44.4344 94.3504 42.6899C94.354 40.5619 95.2307 38.7347 96.4881 37.075C97.7991 35.3448 100.005 33.9775 102.097 33.6562C103.978 33.3674 106.146 33.5642 107.706 34.9323C109.05 36.1125 109.83 37.9703 109.818 39.7423C109.805 41.7929 108.906 43.7792 107.706 45.3573ZM109.856 25.5861C109.051 26.1237 107.693 26.3687 107.064 25.9107C105.802 24.6238 104.775 23.0889 103.719 21.6368C103.744 23.9864 103.769 26.336 103.794 28.6857C103.794 28.6857 103.7 29.5324 102.562 29.8834C101.734 30.1386 99.8956 30.596 99.6947 29.4092C99.0181 25.413 99.899 20.3783 100.122 15.9618C100.122 15.9618 99.9988 15.362 100.927 15.1484C101.478 15.0217 103.291 14.5756 103.694 14.9783C105.309 17.0895 106.945 19.1826 108.623 21.2445C110.257 18.5963 111.864 15.9335 113.427 13.2423C113.528 12.9827 114.01 12.6216 114.358 12.5403C115.245 12.3324 117.024 11.8815 117.074 12.5521C117.116 17.0595 117.158 21.5669 117.2 26.0742C117.2 26.0742 117.104 26.9196 115.967 27.274C115.145 27.5302 113.311 27.9759 113.125 26.8078C112.816 24.8617 113.157 22.4165 113.226 20.2449C112.348 21.7715 111.472 23.3014 110.535 24.7928C110.333 25.0924 110.208 25.3572 109.856 25.5861ZM124.682 42.0761C123.386 43.7683 121.205 45.1753 119.073 45.4837C117.087 45.7711 115.144 45.5645 113.464 44.2321C112.042 43.1043 111.323 41.1854 111.327 39.4476C111.331 37.3136 112.209 35.4773 113.464 33.8071C114.772 32.0672 116.977 30.68 119.073 30.3564C120.957 30.0658 123.126 30.2721 124.682 31.651C126.024 32.8406 126.805 34.7044 126.795 36.4813C126.782 38.527 125.884 40.5059 124.682 42.0761ZM124.417 24.6751C123.678 20.6295 124.443 15.6505 124.593 11.2557C124.593 11.2557 124.531 10.657 125.423 10.4404C126 10.3004 126.65 10.1037 127.294 10.0183C127.739 9.95955 128.18 9.95339 128.592 10.0578C129.455 11.0408 130.308 12.0314 131.155 13.0269C132.424 14.5191 133.677 16.025 134.905 17.5533C134.947 14.9314 134.989 12.3099 135.031 9.68809C135.031 9.68809 135.128 8.82611 136.288 8.51685C136.352 8.49991 136.421 8.48213 136.495 8.46407C137.309 8.26457 138.657 8.04729 139.024 8.83451C139.062 8.91795 139.091 9.01217 139.105 9.11927C139.669 13.1832 138.91 18.044 138.703 22.4299C138.703 22.4299 138.762 23.0257 137.823 23.2121C136.73 23.4289 135.279 23.9637 134.251 23.2469C134 23.0297 133.22 22.1827 132.415 21.0825C131.046 19.2425 129.654 17.4193 128.29 15.5752C128.349 18.3593 128.408 21.1433 128.466 23.9272C128.466 23.9272 128.411 24.7749 127.284 25.1235C126.467 25.3763 124.636 25.8732 124.417 24.6751ZM143.128 33.8015C142.983 36.0712 142.742 38.3807 142.639 40.5722C142.639 40.5722 142.698 41.1686 141.759 41.345C140.662 41.5508 139.211 42.0691 138.187 41.3442C137.936 41.1247 137.156 40.2705 136.351 39.1635C134.982 37.3125 133.591 35.4783 132.226 33.6239C132.285 36.4084 132.344 39.1927 132.402 41.9771C132.402 41.9771 132.347 42.8244 131.22 43.1653C130.398 43.4139 128.571 43.8971 128.353 42.6991C127.616 38.6517 128.378 33.6753 128.529 29.2805C128.529 29.2805 128.467 28.6813 129.359 28.4701C130.335 28.2392 131.522 27.8455 132.528 28.1084C134.686 30.5817 136.794 33.0906 138.841 35.6565C138.883 33.0352 138.925 30.414 138.967 27.7925C138.967 27.7925 139.064 26.9313 140.224 26.6337C140.98 26.4399 142.479 26.136 142.925 26.9147C142.982 27.0138 143.022 27.1294 143.041 27.2661C143.322 29.2994 143.273 31.5306 143.128 33.8015ZM154.422 15.7732C154.34 17.4722 153.475 18.7046 152.359 19.9256C150.104 21.9568 146.561 22.3745 143.808 21.1885C139.05 19.0383 139.98 12.8882 142.928 9.65225C145.297 7.05063 151.779 4.64375 153.768 9.04129C154.044 9.67115 154.169 10.4386 154.12 11.1237C154.096 11.4471 153.861 11.842 153.39 11.9246C152.948 12.0023 151.836 12.197 151.328 12.1634C150.798 12.1286 150.623 11.7622 150.599 11.2914C150.541 10.153 149.728 9.50091 148.662 9.57455C147.164 9.67815 145.943 10.7924 145.191 12.0457C144.738 12.81 144.485 13.6681 144.437 14.4944C144.385 15.3799 144.436 16.2769 144.89 17.0508C145.518 18.1241 146.67 18.8197 147.933 18.6743C148.972 18.5544 150.141 17.8994 150.272 16.754C149.13 16.9614 147.99 17.1764 146.851 17.3984C146.851 17.3984 146.385 17.446 146.197 16.5674C146.014 15.7058 145.82 14.618 146.474 14.3084C147.747 13.947 149.121 13.8536 150.423 13.6939C151.574 13.5528 152.735 13.4237 153.894 13.3093C153.894 13.3093 154.243 13.2151 154.321 13.883C154.393 14.4923 154.452 15.1359 154.422 15.7732Z" fill="#F3BB2B"/>
<path d="M90.4395 29.299C92.8561 28.8544 94.547 26.2695 94.5644 23.8996C94.5807 21.6617 92.8216 19.4945 90.4395 19.9347C88.0184 20.3818 86.3539 22.9695 86.3399 25.336C86.3268 27.5448 88.0804 29.733 90.4395 29.299Z" fill="#FF9B28"/>
<path d="M119.076 33.2378C116.653 33.7311 114.993 36.356 114.977 38.7352C114.961 40.9473 116.729 43.0781 119.076 42.6024C121.488 42.1136 123.183 39.5351 123.201 37.1526C123.218 34.919 121.456 32.7534 119.076 33.2378Z" fill="#FF9B28"/>
<path d="M102.1 36.5376C99.6785 37.0273 98.0161 39.638 98.0001 42.0165C97.9853 44.2262 99.749 46.3756 102.1 45.902C104.514 45.4158 106.206 42.8252 106.225 40.4436C106.242 38.2078 104.477 36.0568 102.1 36.5376Z" fill="#FF9B28"/>
<path d="M81.134 30.928C81.8008 29.434 80.4865 28.794 79.1722 29.0204C78.5209 29.1327 78.0444 29.4816 77.2104 30.2825C76.1807 31.2715 74.3152 31.6136 73.2617 30.4908C71.6605 28.2403 72.657 24.684 74.7205 23.0383C75.4586 22.4471 77.2249 21.9928 77.3362 23.4415C77.4429 24.8302 80.001 24.3528 80.7064 23.4095C80.9831 22.9473 80.9642 22.4401 80.8322 21.9498C80.7613 21.6869 80.6551 21.4199 80.5198 21.1604C80.324 20.7846 80.0612 20.4278 79.7353 20.1247C79.6215 20.0188 79.5026 19.9172 79.3734 19.8265C77.1041 18.2956 73.7297 19.7735 71.979 21.4262C70.0971 23.2026 68.6025 25.7291 68.5333 28.388C68.4782 30.5044 69.5328 32.7727 71.3503 33.8684C74.1928 35.5816 79.7871 34.086 81.134 30.928Z" fill="#F7F7F7"/>
<path d="M95.5368 18.0079C95.1661 17.7545 94.7705 17.5531 94.3586 17.3983C93.1087 16.9287 91.7137 16.8785 90.4418 17.0531C88.3629 17.3382 86.1481 18.6561 84.8331 20.3613C83.5695 21.9997 82.6981 23.8095 82.6953 25.9249C82.6929 27.6842 83.4211 29.6192 84.8331 30.7862C86.4973 32.1617 88.435 32.433 90.4418 32.1805C92.5711 31.9127 94.7593 30.5145 96.0505 28.83C97.2535 27.2607 98.1505 25.2806 98.1632 23.2346C98.1741 21.457 97.3918 19.5959 96.0505 18.405C95.8861 18.2592 95.7138 18.1288 95.5368 18.0079ZM90.4418 29.299C88.0827 29.733 86.3292 27.5448 86.3422 25.3359C86.3562 22.9693 88.0206 20.3817 90.4418 19.9345C92.8239 19.4945 94.583 21.6616 94.5666 23.8995C94.5491 26.2697 92.8582 28.8545 90.4418 29.299Z" fill="#F7F7F7"/>
<path d="M113.127 26.8079C113.313 27.9759 115.147 27.5303 115.969 27.2741C117.105 26.9196 117.201 26.0743 117.201 26.0743C117.159 21.567 117.117 17.0595 117.076 12.5521C117.025 11.8815 115.246 12.3324 114.359 12.5403C114.012 12.6217 113.529 12.9826 113.429 13.2423C111.866 15.9336 110.259 18.5963 108.625 21.2445C106.947 19.1826 105.311 17.0895 103.695 14.9783C103.293 14.5756 101.48 15.0217 100.929 15.1484C100 15.3619 100.124 15.9618 100.124 15.9618C99.9006 20.3784 99.0197 25.413 99.6964 29.4092C99.8973 30.596 101.735 30.1386 102.564 29.8834C103.701 29.5324 103.796 28.6857 103.796 28.6857C103.771 26.3362 103.746 23.9864 103.721 21.6368C104.777 23.0889 105.803 24.6239 107.066 25.9107C107.694 26.3687 109.052 26.1237 109.857 25.5861C110.209 25.3572 110.335 25.0926 110.536 24.793C111.473 23.3016 112.349 21.7716 113.227 20.2451C113.158 22.4165 112.817 24.8617 113.127 26.8079Z" fill="#F7F7F7"/>
<path d="M118.733 25.7176C118.921 26.9137 120.762 26.4294 121.575 26.1928C122.712 25.8622 122.808 25.0184 122.808 25.0184C122.799 20.4978 122.791 15.9772 122.782 11.4564C122.757 10.8008 120.971 11.2401 120.041 11.4389C119.136 11.6324 119.236 12.2341 119.236 12.2341C118.986 16.6595 118.096 21.6662 118.733 25.7176Z" fill="#F7F7F7"/>
<path d="M128.468 23.9273C128.409 21.1433 128.351 18.3593 128.292 15.5754C129.656 17.4194 131.047 19.2427 132.417 21.0827C133.221 22.1827 134.001 23.0298 134.253 23.2471C135.281 23.9639 136.731 23.4291 137.824 23.2122C138.763 23.0259 138.704 22.43 138.704 22.43C138.911 18.0441 139.671 13.1833 139.107 9.11939C139.092 9.01215 139.064 8.91807 139.025 8.83463C138.659 8.04741 137.31 8.26469 136.496 8.46419C136.423 8.48225 136.353 8.50003 136.29 8.51697C135.13 8.82623 135.032 9.68821 135.032 9.68821C134.99 12.31 134.948 14.9315 134.907 17.5534C133.678 16.0252 132.426 14.5192 131.157 13.0271C130.31 12.0315 129.457 11.0409 128.594 10.058C128.182 9.95352 127.74 9.95967 127.296 10.0185C126.652 10.1037 126.001 10.3006 125.425 10.4406C124.532 10.6572 124.595 11.2558 124.595 11.2558C124.444 15.6507 123.68 20.6296 124.419 24.6752C124.637 25.8733 126.468 25.3765 127.286 25.1238C128.412 24.775 128.468 23.9273 128.468 23.9273Z" fill="#F7F7F7"/>
<path d="M153.896 13.3093C152.737 13.4237 151.576 13.5528 150.425 13.6939C149.123 13.8537 147.749 13.947 146.476 14.3084C145.822 14.6181 146.016 15.7059 146.2 16.5674C146.387 17.4459 146.854 17.3985 146.854 17.3985C147.992 17.1764 149.133 16.9615 150.274 16.754C150.143 17.8994 148.974 18.5544 147.935 18.6743C146.672 18.8197 145.52 18.1241 144.892 17.0508C144.439 16.2769 144.387 15.3799 144.439 14.4944C144.488 13.6682 144.741 12.81 145.193 12.0457C145.946 10.7924 147.166 9.67816 148.664 9.57456C149.73 9.50092 150.543 10.153 150.601 11.2914C150.625 11.7621 150.801 12.1284 151.33 12.1634C151.839 12.197 152.95 12.0023 153.393 11.9246C153.863 11.842 154.099 11.4471 154.122 11.1237C154.172 10.4386 154.047 9.67116 153.77 9.0413C151.782 4.64376 145.299 7.05064 142.93 9.65226C139.983 12.8882 139.052 19.0383 143.81 21.1885C146.564 22.3746 150.107 21.9569 152.362 19.9256C153.477 18.7047 154.343 17.4722 154.424 15.7732C154.454 15.1359 154.395 14.4923 154.323 13.8831C154.245 13.2151 153.896 13.3093 153.896 13.3093Z" fill="#F7F7F7"/>
<path d="M89.4484 40.8393C89.5993 41.1133 89.8257 41.2943 90.1778 41.333C91.3815 41.1487 93.0857 39.9414 92.8941 38.7913C92.5408 36.671 88.7261 36.1432 86.7069 36.4026C84.1484 36.7316 79.1073 38.9941 80.5952 42.2175C81.6623 44.5296 85.1744 44.7336 87.3356 45.7618C87.9393 46.0804 88.3176 46.5172 88.3417 46.952C88.368 47.4269 87.9393 48.0821 86.9835 48.4423C86.5812 48.5897 86.2039 48.6323 85.8768 48.6063C84.6094 48.5053 83.6295 47.4977 83.4874 46.2519C83.5126 46.1477 83.3596 45.6934 82.7078 45.8945C81.6459 46.2222 80.5332 47.0184 80.092 48.1158C80.0166 48.4474 80.0668 48.78 80.1423 49.1089C80.8199 51.4996 83.854 51.9315 85.9269 51.6594C87.7091 51.4253 89.5902 50.823 90.9823 49.6361C92.4921 48.388 93.5072 45.7741 92.0386 44.1866C90.5045 42.5282 87.6457 42.6535 85.6503 41.7201C85.1975 41.4946 84.8706 41.2073 84.8454 40.9112C84.8475 38.2562 88.6253 39.1684 89.4484 40.8393Z" fill="#F7F7F7"/>
<path d="M107.707 34.9324C106.148 33.5641 103.979 33.3673 102.098 33.6563C100.007 33.9776 97.8003 35.3448 96.4894 37.0751C95.2317 38.7349 94.3551 40.5619 94.3516 42.6899C94.3486 44.4346 95.0702 46.3597 96.4894 47.4999C98.1654 48.8467 100.107 49.068 102.098 48.7835C104.233 48.4782 106.415 47.0558 107.707 45.3573C108.907 43.7792 109.806 41.7929 109.819 39.7423C109.831 37.9704 109.052 36.1124 107.707 34.9324ZM102.098 45.902C99.7473 46.3757 97.9836 44.2263 97.9984 42.0165C98.0144 39.6382 99.6769 37.0273 102.098 36.5376C104.475 36.0567 106.24 38.2078 106.223 40.4435C106.204 42.8254 104.512 45.4158 102.098 45.902Z" fill="#F7F7F7"/>
<path d="M124.683 31.6509C123.127 30.272 120.958 30.0657 119.075 30.3563C116.978 30.6798 114.773 32.0672 113.466 33.807C112.211 35.4772 111.332 37.3135 111.328 39.4475C111.325 41.1853 112.044 43.1041 113.466 44.232C115.146 45.5645 117.088 45.771 119.075 45.4836C121.206 45.1752 123.388 43.7682 124.683 42.076C125.885 40.5057 126.783 38.5268 126.796 36.481C126.807 34.7043 126.026 32.8405 124.683 31.6509ZM119.075 42.6024C116.727 43.078 114.959 40.9473 114.975 38.7352C114.992 36.356 116.651 33.7313 119.075 33.2378C121.454 32.7534 123.216 34.919 123.199 37.1526C123.181 39.5351 121.486 42.1136 119.075 42.6024Z" fill="#F7F7F7"/>
<path d="M142.927 26.9147C142.482 26.136 140.982 26.4399 140.227 26.6337C139.066 26.9313 138.969 27.7925 138.969 27.7925C138.927 30.414 138.885 33.0352 138.843 35.6565C136.796 33.0906 134.688 30.5817 132.53 28.1084C131.524 27.8455 130.337 28.2392 129.361 28.4701C128.469 28.6813 128.531 29.2805 128.531 29.2805C128.381 33.6753 127.618 38.6516 128.355 42.6991C128.574 43.8971 130.401 43.4139 131.223 43.1653C132.349 42.8243 132.405 41.9771 132.405 41.9771C132.346 39.1927 132.287 36.4083 132.229 33.6239C133.593 35.4783 134.984 37.3126 136.353 39.1635C137.158 40.2705 137.938 41.1247 138.19 41.3442C139.213 42.0691 140.664 41.5508 141.761 41.345C142.7 41.1686 142.641 40.5722 142.641 40.5722C142.745 38.3807 142.986 36.0712 143.13 33.8015C143.275 31.5305 143.324 29.2994 143.044 27.2659C143.025 27.1294 142.984 27.0138 142.927 26.9147Z" fill="#F7F7F7"/>
</svg>
