<svg width="485" height="125" viewBox="0 0 485 125" fill="none" xmlns="http://www.w3.org/2000/svg">
<path d="M169.818 56.3119C169.672 55.7147 169.441 55.1907 169.125 54.74C168.81 54.278 168.415 53.8893 167.942 53.5738C167.48 53.247 166.939 53.0047 166.319 52.847C165.711 52.678 165.041 52.5935 164.308 52.5935C162.731 52.5935 161.384 52.9709 160.269 53.7259C159.164 54.4809 158.319 55.5682 157.733 56.988C157.159 58.4078 156.871 60.1205 156.871 62.1262C156.871 64.1544 157.147 65.8897 157.699 67.332C158.252 68.7743 159.074 69.8786 160.167 70.6448C161.26 71.411 162.618 71.7941 164.24 71.7941C165.672 71.7941 166.86 71.5857 167.807 71.1688C168.765 70.7519 169.48 70.1603 169.953 69.3941C170.427 68.6278 170.663 67.7264 170.663 66.6897L172.286 66.8588H164.376V60.1656H179.723V64.9657C179.723 68.1208 179.052 70.8195 177.711 73.0618C176.382 75.2929 174.545 77.0056 172.201 78.2C169.869 79.3832 167.193 79.9747 164.173 79.9747C160.804 79.9747 157.846 79.2592 155.299 77.8282C152.753 76.3971 150.764 74.3576 149.333 71.7096C147.913 69.0617 147.203 65.9122 147.203 62.2614C147.203 59.3993 147.637 56.864 148.505 54.6555C149.384 52.447 150.601 50.5821 152.156 49.0609C153.711 47.5285 155.508 46.3735 157.547 45.596C159.587 44.8073 161.773 44.4129 164.105 44.4129C166.156 44.4129 168.06 44.7059 169.818 45.2918C171.587 45.8665 173.148 46.689 174.5 47.7595C175.863 48.8187 176.962 50.0751 177.796 51.5286C178.63 52.9822 179.137 54.5766 179.317 56.3119H169.818ZM181.624 52.4582V44.8861H211.71V52.4582H201.298V79.5015H192.036V52.4582H181.624ZM215.247 79.5015V44.8861H230.256C232.892 44.8861 235.106 45.2411 236.898 45.951C238.701 46.6609 240.059 47.6637 240.971 48.9595C241.895 50.2554 242.357 51.7822 242.357 53.54C242.357 54.8133 242.076 55.9739 241.512 57.0218C240.96 58.0697 240.183 58.9486 239.18 59.6585C238.177 60.3571 237.005 60.8416 235.664 61.1121V61.4501C237.152 61.5065 238.504 61.8839 239.721 62.5826C240.938 63.2699 241.907 64.222 242.628 65.439C243.349 66.6447 243.71 68.0644 243.71 69.6983C243.71 71.5913 243.214 73.2759 242.222 74.752C241.242 76.2281 239.845 77.3887 238.03 78.2338C236.216 79.0789 234.053 79.5015 231.54 79.5015H215.247ZM224.644 71.997H229.039C230.616 71.997 231.799 71.704 232.588 71.1181C233.377 70.5209 233.771 69.642 233.771 68.4814C233.771 67.6701 233.585 66.9827 233.213 66.4193C232.842 65.8559 232.312 65.4277 231.625 65.1348C230.949 64.8418 230.132 64.6953 229.174 64.6953H224.644V71.997ZM224.644 58.881H228.498C229.32 58.881 230.047 58.7514 230.678 58.4923C231.309 58.2331 231.799 57.8613 232.149 57.3767C232.509 56.8809 232.689 56.2781 232.689 55.5682C232.689 54.4978 232.306 53.6808 231.54 53.1174C230.774 52.5428 229.805 52.2554 228.633 52.2554H224.644V58.881ZM265.699 55.7034C265.609 54.5766 265.186 53.6977 264.431 53.0667C263.688 52.4357 262.555 52.1202 261.034 52.1202C260.065 52.1202 259.271 52.2385 258.651 52.4751C258.042 52.7005 257.592 53.0104 257.299 53.4048C257.006 53.7991 256.854 54.2499 256.842 54.7569C256.82 55.1738 256.893 55.5513 257.062 55.8894C257.242 56.2161 257.524 56.5147 257.907 56.7852C258.29 57.0443 258.78 57.281 259.378 57.495C259.975 57.7091 260.685 57.9007 261.507 58.0697L264.347 58.6782C266.262 59.0838 267.902 59.6191 269.265 60.2839C270.629 60.9487 271.744 61.7318 272.612 62.6333C273.48 63.5234 274.116 64.5263 274.522 65.6418C274.939 66.7573 275.153 67.9743 275.164 69.2927C275.153 71.5688 274.584 73.4956 273.457 75.0731C272.33 76.6507 270.719 77.8507 268.623 78.6733C266.539 79.4958 264.031 79.9071 261.102 79.9071C258.093 79.9071 255.468 79.462 253.225 78.5719C250.994 77.6817 249.259 76.3126 248.02 74.4647C246.791 72.6054 246.172 70.2279 246.16 67.332H255.085C255.141 68.3912 255.406 69.2814 255.879 70.0025C256.352 70.7237 257.017 71.2702 257.873 71.642C258.741 72.0139 259.772 72.1998 260.966 72.1998C261.969 72.1998 262.809 72.0758 263.485 71.828C264.161 71.5801 264.674 71.2364 265.023 70.7969C265.372 70.3575 265.553 69.8561 265.564 69.2927C265.553 68.7631 265.378 68.3011 265.04 67.9067C264.713 67.501 264.172 67.1405 263.417 66.825C262.662 66.4982 261.643 66.1939 260.358 65.9122L256.91 65.1686C253.845 64.5037 251.428 63.3938 249.659 61.8389C247.901 60.2726 247.028 58.1373 247.039 55.433C247.028 53.2357 247.614 51.3145 248.797 49.6694C249.991 48.013 251.642 46.7228 253.749 45.7989C255.868 44.8749 258.296 44.4129 261.034 44.4129C263.829 44.4129 266.246 44.8805 268.285 45.8158C270.325 46.751 271.896 48.0694 273.001 49.7708C274.116 51.461 274.68 53.4386 274.691 55.7034H265.699Z" fill="black"/>
<path d="M278.739 79.5015V44.8861H303.078V52.4582H288.136V58.4078H301.59V65.9799H288.136V79.5015H278.739ZM306.534 79.5015V44.8861H315.932V71.9294H329.927V79.5015H306.534ZM343.123 44.8861V79.5015H333.725V44.8861H343.123ZM379.893 57.8669H370.361C370.293 57.0781 370.113 56.3626 369.82 55.7203C369.538 55.0781 369.144 54.5259 368.637 54.0639C368.141 53.5907 367.538 53.2301 366.828 52.9822C366.118 52.723 365.312 52.5935 364.411 52.5935C362.833 52.5935 361.498 52.9766 360.405 53.7428C359.323 54.509 358.501 55.6077 357.938 57.0387C357.385 58.4697 357.109 60.1881 357.109 62.1938C357.109 64.3122 357.391 66.0869 357.954 67.5179C358.529 68.9377 359.357 70.0082 360.439 70.7293C361.521 71.4392 362.822 71.7941 364.343 71.7941C365.211 71.7941 365.989 71.6871 366.676 71.473C367.363 71.2476 367.96 70.9265 368.467 70.5096C368.975 70.0927 369.386 69.5913 369.701 69.0053C370.028 68.4081 370.248 67.7377 370.361 66.994L379.893 67.0616C379.781 68.5264 379.369 70.0194 378.659 71.5406C377.95 73.0505 376.941 74.4478 375.634 75.7323C374.338 77.0056 372.732 78.031 370.817 78.8085C368.901 79.586 366.676 79.9747 364.141 79.9747C360.963 79.9747 358.112 79.293 355.588 77.9296C353.075 76.5661 351.087 74.5604 349.622 71.9125C348.168 69.2645 347.441 66.0249 347.441 62.1938C347.441 58.3401 348.185 55.095 349.672 52.4582C351.16 49.8103 353.166 47.8102 355.69 46.458C358.214 45.0946 361.031 44.4129 364.141 44.4129C366.327 44.4129 368.338 44.7115 370.175 45.3087C372.011 45.9059 373.623 46.7792 375.009 47.9285C376.395 49.0666 377.51 50.4694 378.355 52.1371C379.2 53.8048 379.713 55.7147 379.893 57.8669ZM384.157 79.5015V44.8861H393.554V58.881H394.028L404.439 44.8861H415.392L403.696 60.3008L415.662 79.5015H404.439L396.664 66.5207L393.554 70.5772V79.5015H384.157ZM436.376 55.7034C436.285 54.5766 435.863 53.6977 435.108 53.0667C434.364 52.4357 433.232 52.1202 431.711 52.1202C430.742 52.1202 429.947 52.2385 429.327 52.4751C428.719 52.7005 428.268 53.0104 427.975 53.4048C427.682 53.7991 427.53 54.2499 427.519 54.7569C427.496 55.1738 427.57 55.5513 427.739 55.8894C427.919 56.2161 428.201 56.5147 428.584 56.7852C428.967 57.0443 429.457 57.281 430.054 57.495C430.651 57.7091 431.361 57.9007 432.184 58.0697L435.023 58.6782C436.939 59.0838 438.578 59.6191 439.942 60.2839C441.305 60.9487 442.421 61.7318 443.288 62.6333C444.156 63.5234 444.793 64.5263 445.198 65.6418C445.615 66.7573 445.829 67.9743 445.841 69.2927C445.829 71.5688 445.26 73.4956 444.134 75.0731C443.007 76.6507 441.395 77.8507 439.3 78.6733C437.215 79.4958 434.708 79.9071 431.778 79.9071C428.77 79.9071 426.144 79.462 423.902 78.5719C421.671 77.6817 419.936 76.3126 418.696 74.4647C417.468 72.6054 416.848 70.2279 416.837 67.332H425.761C425.817 68.3912 426.082 69.2814 426.555 70.0025C427.029 70.7237 427.694 71.2702 428.55 71.642C429.418 72.0139 430.449 72.1998 431.643 72.1998C432.646 72.1998 433.485 72.0758 434.161 71.828C434.837 71.5801 435.35 71.2364 435.699 70.7969C436.049 70.3575 436.229 69.8561 436.24 69.2927C436.229 68.7631 436.054 68.3011 435.716 67.9067C435.39 67.501 434.849 67.1405 434.094 66.825C433.339 66.4982 432.319 66.1939 431.035 65.9122L427.586 65.1686C424.522 64.5037 422.105 63.3938 420.336 61.8389C418.578 60.2726 417.704 58.1373 417.716 55.433C417.704 53.2357 418.29 51.3145 419.474 49.6694C420.668 48.013 422.319 46.7228 424.426 45.7989C426.544 44.8749 428.972 44.4129 431.711 44.4129C434.505 44.4129 436.922 44.8805 438.962 45.8158C441.001 46.751 442.573 48.0694 443.677 49.7708C444.793 51.461 445.356 53.4386 445.367 55.7034H436.376ZM447.996 44.8861H458.475L465.236 58.9486H465.506L472.267 44.8861H482.746L470.036 68.6166V79.5015H460.706V68.6166L447.996 44.8861Z" fill="#F3BB2B"/>
<g opacity="0.2">
<path d="M113.735 38.8269L119.529 44.5119C129.784 54.5754 129.784 70.8916 119.529 80.9587L88.3259 111.579C81.6796 118.101 70.9053 118.101 64.2553 111.575L56.3628 103.83C60.4871 107.877 67.1742 107.877 71.3021 103.83L113.609 62.3131C120.215 55.831 120.259 45.3527 113.739 38.8232L113.735 38.8269Z" fill="url(#paint0_linear_118_1546)"/>
<path style="mix-blend-mode:color-dodge" d="M76.0572 114.037C72.019 114.037 68.2199 112.493 65.3622 109.691L63.6079 107.971H63.6999C66.9657 107.971 70.0404 106.724 72.35 104.459L114.303 63.3306C118.617 59.0973 120.367 53.2557 119.54 47.7207C122.953 51.918 124.803 57.0816 124.803 62.5265C124.803 68.8836 122.276 74.8658 117.69 79.3623L86.7449 109.702C83.8909 112.5 80.0955 114.044 76.0572 114.044V114.037Z" fill="url(#paint1_radial_118_1546)"/>
<g style="mix-blend-mode:multiply">
<path d="M87.7663 111.329L81.8538 117.083C71.6097 127.045 55.0126 127.052 44.7722 117.09L23.4953 96.3839C16.8572 89.9239 16.8646 79.4502 23.4953 72.9974L30.8517 65.842C30.9628 65.7267 31.0775 65.6186 31.1812 65.5142C31.0701 65.6295 30.9628 65.7375 30.8702 65.86C28.2786 68.7496 27.6381 72.7164 28.9413 76.1392C29.4559 77.4902 30.263 78.7513 31.3774 79.8357L63.735 111.329C70.3731 117.789 81.1281 117.789 87.7663 111.329Z" fill="url(#paint2_linear_118_1546)" style="mix-blend-mode:screen"/>
</g>
<g style="mix-blend-mode:multiply">
<path d="M63.5829 122.94C56.99 122.94 50.7897 120.437 46.1264 115.887L24.6348 94.9176C21.7291 92.0825 20.1323 88.3169 20.1323 84.3069C20.1323 80.3005 21.7329 76.5313 24.6348 73.6998L26.3924 71.9849C26.3775 75.1046 27.6041 78.2243 30.0685 80.6289L62.7527 112.519C66.3352 116.011 71.092 117.938 76.1554 117.938C77.0866 117.938 78.0065 117.872 78.9115 117.744C74.5661 121.112 69.2185 122.94 63.5829 122.94Z" fill="url(#paint3_radial_118_1546)" style="mix-blend-mode:color-dodge"/>
</g>
<path d="M53.1428 0L53.1354 33.2993C53.1428 39.9166 50.4605 46.2514 45.6871 50.9283L31.2742 65.0386C31.2151 65.1037 31.1449 65.1653 31.0857 65.2341L23.412 72.7526C16.7949 79.2358 16.7875 89.7588 23.412 96.2493L7.66174 80.8177C-2.55391 70.8014 -2.55391 54.5699 7.66174 44.5609L53.1428 0Z" fill="url(#paint4_linear_118_1546)"/>
<path style="mix-blend-mode:color-dodge" d="M8.79862 79.5027C4.16222 74.9858 1.60791 68.9765 1.60791 62.5868C1.60791 56.1972 4.16222 50.1879 8.79862 45.6709L51.53 4.04395V33.1813C51.53 39.3791 49.0537 45.2109 44.5512 49.5938L30.0473 63.717C29.9729 63.7858 29.8985 63.8655 29.8242 63.9416L22.1353 71.4324C18.5771 74.8988 16.6177 79.5063 16.6177 84.4109C16.6177 85.407 16.6995 86.3886 16.8556 87.3521L8.79862 79.5027Z" fill="url(#paint5_radial_118_1546)"/>
<path style="mix-blend-mode:screen" d="M113.338 62.0585L95.4079 79.3535C98.4971 76.3736 99.2863 72.0336 97.7903 68.3502C97.2779 67.0623 96.4775 65.861 95.4004 64.8184L82.3477 52.2277L73.2744 82.4994V0L95.1087 21.0649L107.256 32.7897L113.468 38.7821C120.043 45.2506 119.995 55.6406 113.338 62.0621V62.0585Z" fill="url(#paint6_linear_118_1546)"/>
<g style="mix-blend-mode:multiply">
<path d="M100.359 72.695C100.359 69.4533 99.0535 66.4086 96.6798 64.115L81.3506 49.3033L74.8823 70.9119V4.04395L93.8343 22.3562L112.356 40.2602C118.266 46.0872 118.213 55.5423 112.224 61.3291L100.359 72.7934V72.6986V72.695Z" fill="url(#paint7_radial_118_1546)" style="mix-blend-mode:color-dodge"/>
</g>
<g style="mix-blend-mode:multiply">
<path d="M53.1443 82.4992L52.9955 82.1594C51.0326 77.7104 47.3209 74.1967 42.6768 72.389C47.3209 70.5814 51.0326 67.0677 52.9955 62.6186L53.1443 62.2788" fill="url(#paint8_linear_118_1546)" style="mix-blend-mode:screen"/>
</g>
<path style="mix-blend-mode:color-dodge" d="M53.1435 0L53.1362 33.2993C53.1435 39.9166 50.4779 46.2514 45.7341 50.9283L31.411 65.0386C31.3522 65.1037 31.2825 65.1653 31.2237 65.2341L23.5977 72.7526C17.0217 79.2358 17.0144 89.7588 23.5977 96.2493C-14.2058 58.9753 53.1435 54.1934 53.1435 0Z" fill="url(#paint9_radial_118_1546)"/>
<g style="mix-blend-mode:plus-darker">
<path d="M95.166 79.3535C99.2795 75.3418 99.2795 68.8373 95.1586 64.8184L82.2486 52.2277L73.2744 82.4994V0C73.2744 45.651 119.551 55.5684 95.1623 79.3535H95.166Z" fill="url(#paint10_radial_118_1546)" style="mix-blend-mode:color-dodge"/>
</g>
<path style="mix-blend-mode:multiply" d="M29.1384 101.911L23.3855 96.1654C16.8939 89.6823 16.9012 79.1711 23.3855 72.6952L30.5793 65.5142L30.5974 65.5322C28.0631 68.4321 27.4368 72.4131 28.7112 75.8482C23.4723 81.6732 15.9888 88.7783 29.1384 101.911Z" fill="url(#paint11_linear_118_1546)"/>
<path style="mix-blend-mode:multiply" d="M94.2069 105.803L88.2329 111.582C81.492 118.103 70.5628 118.095 63.8294 111.582L56.3628 104.356L56.3816 104.337C59.3968 106.883 63.5361 107.512 67.1077 106.232C73.1644 111.495 80.5521 119.012 94.2069 105.803Z" fill="url(#paint12_linear_118_1546)"/>
<path style="mix-blend-mode:multiply" d="M113.427 62.1405L95.8188 79.2642C98.8527 76.3138 99.6276 72.0168 98.1585 68.3699C106.915 59.9331 124.662 49.896 107.455 33.1616L113.555 39.0946C120.012 45.499 119.965 55.7861 113.427 62.1441V62.1405Z" fill="url(#paint13_linear_118_1546)"/>
</g>
<g filter="url(#filter0_d_118_1546)">
<path d="M54.2068 86.9403L30.7217 62.1379L64.924 26.0172L71.7227 33.1973L44.3191 62.1379L54.2068 72.5802L64.0946 62.1379H50.8749L64.3721 48.0708L77.692 62.1379L54.2068 86.9403Z" fill="#FF9600"/>
<path d="M82.1347 59.7283L95.5153 59.4478L74.6556 37.2799L67.8569 44.46L82.1347 59.7283Z" fill="#FEBA00"/>
<path d="M56.3014 91.2886L63.3973 98.1875L96.3971 63.3753H82.9568L56.3014 91.2886Z" fill="#FEBA00"/>
</g>
<defs>
<filter id="filter0_d_118_1546" x="30.7217" y="26.0171" width="76.2522" height="82.7473" filterUnits="userSpaceOnUse" color-interpolation-filters="sRGB">
<feFlood flood-opacity="0" result="BackgroundImageFix"/>
<feColorMatrix in="SourceAlpha" type="matrix" values="0 0 0 0 0 0 0 0 0 0 0 0 0 0 0 0 0 0 127 0" result="hardAlpha"/>
<feOffset dx="5.28845" dy="5.28845"/>
<feGaussianBlur stdDeviation="2.64423"/>
<feComposite in2="hardAlpha" operator="out"/>
<feColorMatrix type="matrix" values="0 0 0 0 0 0 0 0 0 0 0 0 0 0 0 0 0 0 0.25 0"/>
<feBlend mode="normal" in2="BackgroundImageFix" result="effect1_dropShadow_118_1546"/>
<feBlend mode="normal" in="SourceGraphic" in2="effect1_dropShadow_118_1546" result="shape"/>
</filter>
<linearGradient id="paint0_linear_118_1546" x1="71.9289" y1="91.2879" x2="113.81" y2="67.8152" gradientUnits="userSpaceOnUse">
<stop offset="0.04" stop-color="#FFBB00"/>
<stop offset="0.28" stop-color="#FF9300"/>
<stop offset="1" stop-color="#FF9E00"/>
</linearGradient>
<radialGradient id="paint1_radial_118_1546" cx="0" cy="0" r="1" gradientUnits="userSpaceOnUse" gradientTransform="translate(152.379 61.3978) scale(51.3751 50.3706)">
<stop stop-color="white"/>
<stop offset="0.14" stop-color="#BEBDBD"/>
<stop offset="0.31" stop-color="#7D7B7B"/>
<stop offset="0.46" stop-color="#484646"/>
<stop offset="0.58" stop-color="#231F1F"/>
<stop offset="0.69" stop-color="#0C0808"/>
<stop offset="0.75" stop-color="#040000"/>
</radialGradient>
<linearGradient id="paint2_linear_118_1546" x1="71.1173" y1="118.473" x2="21.7336" y2="72.8653" gradientUnits="userSpaceOnUse">
<stop stop-color="#2D2D2D"/>
<stop offset="0.72"/>
<stop offset="0.98"/>
</linearGradient>
<radialGradient id="paint3_radial_118_1546" cx="0" cy="0" r="1" gradientUnits="userSpaceOnUse" gradientTransform="translate(59.1103 139.575) scale(40.485 39.5019)">
<stop stop-color="white"/>
<stop offset="0.14" stop-color="#BEBDBD"/>
<stop offset="0.31" stop-color="#7D7B7B"/>
<stop offset="0.46" stop-color="#484646"/>
<stop offset="0.58" stop-color="#231F1F"/>
<stop offset="0.69" stop-color="#0C0808"/>
<stop offset="0.75" stop-color="#040000"/>
</radialGradient>
<linearGradient id="paint4_linear_118_1546" x1="42.82" y1="19.0406" x2="9.62014" y2="82.6443" gradientUnits="userSpaceOnUse">
<stop offset="0.04" stop-color="#FFBB00"/>
<stop offset="0.28" stop-color="#FF9300"/>
<stop offset="1" stop-color="#FF9E00"/>
</linearGradient>
<radialGradient id="paint5_radial_118_1546" cx="0" cy="0" r="1" gradientUnits="userSpaceOnUse" gradientTransform="translate(-43.0794 65.8831) scale(81.8862 79.7763)">
<stop stop-color="white"/>
<stop offset="0.14" stop-color="#BEBDBD"/>
<stop offset="0.31" stop-color="#7D7B7B"/>
<stop offset="0.46" stop-color="#484646"/>
<stop offset="0.58" stop-color="#231F1F"/>
<stop offset="0.69" stop-color="#0C0808"/>
<stop offset="0.75" stop-color="#040000"/>
</radialGradient>
<linearGradient id="paint6_linear_118_1546" x1="81.495" y1="11.263" x2="99.5072" y2="84.3836" gradientUnits="userSpaceOnUse">
<stop stop-color="#2D2D2D"/>
<stop offset="0.72"/>
<stop offset="0.98"/>
</linearGradient>
<radialGradient id="paint7_radial_118_1546" cx="0" cy="0" r="1" gradientUnits="userSpaceOnUse" gradientTransform="translate(105.895 6.20627) scale(45.6139 44.0741)">
<stop stop-color="white"/>
<stop offset="0.14" stop-color="#BEBDBD"/>
<stop offset="0.31" stop-color="#7D7B7B"/>
<stop offset="0.46" stop-color="#484646"/>
<stop offset="0.58" stop-color="#231F1F"/>
<stop offset="0.69" stop-color="#0C0808"/>
<stop offset="0.75" stop-color="#040000"/>
</radialGradient>
<linearGradient id="paint8_linear_118_1546" x1="53.4926" y1="60.303" x2="45.7401" y2="85.8323" gradientUnits="userSpaceOnUse">
<stop stop-color="#2D2D2D"/>
<stop offset="0.72"/>
<stop offset="0.98"/>
</linearGradient>
<radialGradient id="paint9_radial_118_1546" cx="0" cy="0" r="1" gradientUnits="userSpaceOnUse" gradientTransform="translate(-32.0318 85.129) scale(79.029 77.9145)">
<stop stop-color="white"/>
<stop offset="0.14" stop-color="#BEBDBD"/>
<stop offset="0.31" stop-color="#7D7B7B"/>
<stop offset="0.46" stop-color="#484646"/>
<stop offset="0.58" stop-color="#231F1F"/>
<stop offset="0.69" stop-color="#0C0808"/>
<stop offset="0.75" stop-color="#040000"/>
</radialGradient>
<radialGradient id="paint10_radial_118_1546" cx="0" cy="0" r="1" gradientUnits="userSpaceOnUse" gradientTransform="translate(25.2186 10.3647) scale(99.4703 97.0092)">
<stop stop-color="white"/>
<stop offset="0.14" stop-color="#BEBDBD"/>
<stop offset="0.31" stop-color="#7D7B7B"/>
<stop offset="0.46" stop-color="#484646"/>
<stop offset="0.58" stop-color="#231F1F"/>
<stop offset="0.69" stop-color="#0C0808"/>
<stop offset="0.75" stop-color="#040000"/>
</radialGradient>
<linearGradient id="paint11_linear_118_1546" x1="24.3775" y1="58.2536" x2="24.9625" y2="112.592" gradientUnits="userSpaceOnUse">
<stop stop-color="#A4A4A4"/>
<stop offset="1" stop-color="white" stop-opacity="0"/>
</linearGradient>
<linearGradient id="paint12_linear_118_1546" x1="48.8173" y1="110.582" x2="105.316" y2="109.952" gradientUnits="userSpaceOnUse">
<stop stop-color="#A4A4A4"/>
<stop offset="1" stop-color="white" stop-opacity="0"/>
</linearGradient>
<linearGradient id="paint13_linear_118_1546" x1="86.1518" y1="86.4259" x2="120.445" y2="29.1821" gradientUnits="userSpaceOnUse">
<stop stop-color="#A4A4A4"/>
<stop offset="1" stop-color="white" stop-opacity="0"/>
</linearGradient>
</defs>
</svg>
