<svg width="20" height="14" viewBox="0 0 20 14" fill="none" xmlns="http://www.w3.org/2000/svg">
<path d="M10.8497 2.72554C10.6515 2.52733 10.5524 2.3008 10.5524 2.04595C10.5524 1.76279 10.6515 1.50795 10.8497 1.28142L11.5718 0.601825C11.77 0.375295 11.9965 0.26203 12.2514 0.26203C12.5345 0.26203 12.7752 0.375295 12.9734 0.601825L18.75 6.33587C18.9482 6.53408 19.0473 6.77477 19.0473 7.05793C19.0473 7.34109 18.9482 7.58178 18.75 7.78L12.9734 13.514C12.7752 13.7406 12.5345 13.8538 12.2514 13.8538C11.9965 13.8538 11.77 13.7406 11.5718 13.514L10.8497 12.8344C10.6515 12.6079 10.5524 12.3672 10.5524 12.1124C10.5524 11.8292 10.6515 11.5885 10.8497 11.3903L13.6106 8.58701H1.03814C0.754982 8.58701 0.514293 8.4879 0.31608 8.28969C0.117866 8.09147 0.018759 7.85079 0.018759 7.56762V6.54824C0.018759 6.26508 0.117866 6.02439 0.31608 5.82617C0.514293 5.62796 0.754982 5.52885 1.03814 5.52885H13.6106L10.8497 2.72554Z" fill="black"/>
</svg>
